<svg xmlns="http://www.w3.org/2000/svg" xmlns:xlink="http://www.w3.org/1999/xlink" width="1080" zoomAndPan="magnify" viewBox="0 0 810 809.999993" height="1080" preserveAspectRatio="xMidYMid meet" version="1.0"><defs><g/><clipPath id="8fdf95e024"><path d="M 405 0 C 181.324219 0 0 181.324219 0 405 C 0 628.675781 181.324219 810 405 810 C 628.675781 810 810 628.675781 810 405 C 810 181.324219 628.675781 0 405 0 Z M 405 0 " clip-rule="nonzero"/></clipPath></defs><g clip-path="url(#8fdf95e024)"><rect x="-81" width="972" fill="#f3f4f3" y="-80.999999" height="971.999992" fill-opacity="1"/></g><g fill="#2ca083" fill-opacity="1"><g transform="translate(94.640917, 609.806128)"><g><path d="M 294.484375 -551.71875 C 296.671875 -551.71875 298.757812 -549.628906 300.75 -545.453125 C 299.957031 -527.972656 299.5625 -513.769531 299.5625 -502.84375 L 299.5625 -481.375 C 321.414062 -488.132812 334.429688 -491.515625 338.609375 -491.515625 C 342.179688 -491.515625 345.554688 -489.425781 348.734375 -485.25 C 348.734375 -479.488281 331.941406 -470.644531 298.359375 -458.71875 L 298.359375 -417.296875 L 299.5625 -410.734375 C 329.164062 -422.660156 347.242188 -428.625 353.796875 -428.625 C 360.359375 -426.238281 363.640625 -421.960938 363.640625 -415.796875 C 363.640625 -407.054688 343.570312 -396.625 303.4375 -384.5 C 303.4375 -382.71875 302.539062 -381.828125 300.75 -381.828125 C 301.539062 -367.910156 301.9375 -357.476562 301.9375 -350.53125 C 301.9375 -344.957031 301.539062 -336.507812 300.75 -325.1875 L 301.9375 -325.1875 C 353.007812 -337.90625 408.847656 -348.4375 469.453125 -356.78125 L 469.453125 -357.96875 C 469.453125 -358.96875 455.242188 -363.640625 426.828125 -371.984375 C 426.828125 -373.578125 426.332031 -374.375 425.34375 -374.375 C 426.332031 -377.75 428.019531 -379.4375 430.40625 -379.4375 C 489.226562 -374.070312 518.640625 -367.316406 518.640625 -359.171875 C 518.640625 -357.378906 519.035156 -355.6875 519.828125 -354.09375 C 519.828125 -338.195312 473.226562 -322.300781 380.03125 -306.40625 C 318.832031 -293.894531 270.148438 -281.28125 233.984375 -268.5625 L 233.984375 -266.171875 C 235.972656 -261.992188 237.265625 -259.90625 237.859375 -259.90625 C 237.054688 -258.125 236.65625 -256.832031 236.65625 -256.03125 C 236.65625 -240.332031 237.453125 -223.546875 239.046875 -205.671875 L 241.734375 -205.671875 C 285.648438 -239.242188 327.578125 -256.03125 367.515625 -256.03125 C 385.992188 -256.03125 398.210938 -242.617188 404.171875 -215.796875 C 410.734375 -187.578125 414.015625 -142.671875 414.015625 -81.078125 L 414.015625 -52.15625 C 414.015625 13.613281 402.289062 64.382812 378.84375 100.15625 C 373.28125 104.320312 366.523438 106.40625 358.578125 106.40625 C 340.097656 106.40625 321.21875 82.5625 301.9375 34.875 L 292.109375 15.796875 C 293.296875 12.421875 294.488281 10.734375 295.6875 10.734375 L 298.359375 10.734375 C 335.316406 47.492188 354.59375 65.972656 356.1875 66.171875 C 375.457031 34.773438 385.09375 -39.835938 385.09375 -157.671875 C 385.09375 -209.734375 381.320312 -235.765625 373.78125 -235.765625 C 338.207031 -235.765625 294.191406 -216.09375 241.734375 -176.75 L 240.234375 -174.0625 C 241.234375 -163.132812 241.734375 -154.394531 241.734375 -147.84375 L 241.734375 -142.765625 C 241.734375 -140.984375 242.925781 -140.09375 245.3125 -140.09375 C 280.476562 -157.78125 301.9375 -166.625 309.6875 -166.625 C 320.613281 -166.625 331.046875 -162.445312 340.984375 -154.09375 C 340.984375 -148.332031 308.296875 -137.007812 242.921875 -120.125 C 243.710938 -111.769531 244.507812 -94.082031 245.3125 -67.0625 L 247.984375 -67.0625 L 253.0625 -70.9375 L 258.125 -70.9375 C 259.71875 -70.9375 260.515625 -69.644531 260.515625 -67.0625 L 261.703125 -67.0625 C 264.085938 -67.0625 287.632812 -77.992188 332.34375 -99.859375 C 340.09375 -102.441406 352.613281 -104.128906 369.90625 -104.921875 C 374.269531 -103.921875 376.453125 -102.628906 376.453125 -101.046875 L 376.453125 -96.28125 C 356.785156 -74.414062 322.3125 -56.726562 273.03125 -43.21875 L 258.125 -40.828125 C 253.351562 -41.628906 249.972656 -42.03125 247.984375 -42.03125 C 247.984375 -40.238281 247.585938 -39.34375 246.796875 -39.34375 L 253.0625 12.21875 C 253.0625 21.757812 247.195312 27.222656 235.46875 28.609375 C 221.757812 28.609375 212.519531 4.664062 207.75 -43.21875 C 205.164062 -67.65625 203.875 -86.929688 203.875 -101.046875 C 207.050781 -200.992188 212.117188 -254.742188 219.078125 -262.296875 C 218.085938 -262.296875 217.59375 -262.691406 217.59375 -263.484375 C 118.632812 -223.347656 65.773438 -203.28125 59.015625 -203.28125 C 57.421875 -203.28125 56.625 -202.785156 56.625 -201.796875 C 49.875 -204.171875 46.5 -206.253906 46.5 -208.046875 L 46.5 -210.734375 C 46.5 -216.691406 54.445312 -224.242188 70.34375 -233.390625 C 74.320312 -230.804688 76.90625 -229.515625 78.09375 -229.515625 C 161.550781 -275.210938 232.890625 -305.910156 292.109375 -321.609375 L 292.109375 -324 C 280.179688 -343.269531 274.21875 -359.265625 274.21875 -371.984375 L 273.03125 -371.984375 C 246.601562 -365.222656 231.898438 -361.84375 228.921875 -361.84375 C 212.222656 -362.84375 203.875 -367.019531 203.875 -374.375 C 203.875 -379.34375 206.359375 -382.71875 211.328125 -384.5 L 217.59375 -380.625 L 222.65625 -380.625 C 230.800781 -380.625 247.59375 -387.378906 273.03125 -400.890625 L 273.03125 -415.796875 C 273.03125 -422.953125 273.425781 -434.28125 274.21875 -449.78125 L 273.03125 -449.78125 C 243.019531 -439.84375 220.765625 -434.875 206.265625 -434.875 L 186.296875 -434.875 C 182.710938 -434.875 179.726562 -436.5625 177.34375 -439.9375 C 178.539062 -444.113281 181.523438 -446.203125 186.296875 -446.203125 L 201.484375 -446.203125 C 213.015625 -446.203125 237.753906 -454.148438 275.703125 -470.046875 C 285.046875 -523.703125 290.910156 -550.53125 293.296875 -550.53125 C 294.085938 -550.53125 294.484375 -550.925781 294.484375 -551.71875 Z M 294.484375 -551.71875 "/></g></g></g></svg>